ply
format ascii 1.0
comment Created by Blender 2.78 (sub 0) - www.blender.org, source file: 'CoffeeCupObjectTexture.blend'
element vertex 64
property float x
property float y
property float z
property float nx
property float ny
property float nz
property float s
property float t
element face 32
property list uchar uint vertex_indices
end_header
2.028064 0.403409 3.821047 0.000000 0.000000 -1.000000 0.645716 0.373276
2.067796 0.000002 3.821047 0.000000 0.000000 -1.000000 0.664216 0.429731
-0.000000 0.000001 3.821047 0.000000 0.000000 -1.000000 0.428263 0.520224
-0.000000 0.000001 3.821047 0.000000 0.000000 -1.000000 0.428263 0.520227
-1.462153 -1.462153 3.821047 0.000000 0.000000 -1.000000 0.312018 0.795135
-1.719310 -1.148806 3.821047 0.000000 0.000000 -1.000000 0.271827 0.761185
-0.000000 0.000001 3.821047 0.000000 0.000000 -1.000000 0.428252 0.520243
-0.000000 0.000001 3.821047 0.000000 0.000000 -1.000000 0.428250 0.520247
1.910394 0.791313 3.821047 0.000000 0.000000 -1.000000 0.618858 0.322470
-0.000000 0.000001 3.821047 0.000000 0.000000 -1.000000 0.428270 0.520226
-1.148806 -1.719310 3.821047 0.000000 0.000000 -1.000000 0.356677 0.818520
-0.000000 0.000001 3.821047 0.000000 0.000000 -1.000000 0.428250 0.520247
1.719308 1.148808 3.821047 0.000000 0.000000 -1.000000 0.584675 0.279266
-0.000000 0.000001 3.821047 0.000000 0.000000 -1.000000 0.428274 0.520225
-0.791311 -1.910395 3.821047 0.000000 0.000000 -1.000000 0.404087 0.830441
-0.000000 0.000001 3.821047 0.000000 0.000000 -1.000000 0.428250 0.520247
-0.403407 2.028064 3.821047 0.000000 0.000000 -1.000000 0.312016 0.245304
-0.000000 2.067796 3.821047 0.000000 0.000000 -1.000000 0.356674 0.221921
-0.000000 0.000001 3.821047 0.000000 0.000000 -1.000000 0.428243 0.520183
-0.000000 0.000001 3.821047 0.000000 0.000000 -1.000000 0.428247 0.520181
1.462151 1.462155 3.821047 0.000000 0.000000 -1.000000 0.544481 0.245323
-0.000000 0.000001 3.821047 0.000000 0.000000 -1.000000 0.428278 0.520224
-0.403407 -2.028064 3.821047 0.000000 0.000000 -1.000000 0.452426 0.830440
-0.000000 0.000001 3.821047 0.000000 0.000000 -1.000000 0.428249 0.520247
-0.791312 1.910395 3.821047 0.000000 0.000000 -1.000000 0.271826 0.279253
-0.000000 0.000001 3.821047 0.000000 0.000000 -1.000000 0.428252 0.520178
1.148804 1.719311 3.821047 0.000000 0.000000 -1.000000 0.499826 0.221933
-0.000000 0.000001 3.821047 0.000000 0.000000 -1.000000 0.428230 0.520187
0.000001 -2.067796 3.821047 0.000000 -0.000000 -1.000000 0.499836 0.818518
-0.000000 0.000000 3.821047 0.000000 -0.000000 -1.000000 0.428249 0.520245
-1.148806 1.719310 3.821047 0.000000 0.000000 -1.000000 0.237648 0.322462
-0.000000 0.000001 3.821047 0.000000 0.000000 -1.000000 0.428257 0.520175
0.791308 1.910396 3.821047 0.000000 0.000000 -1.000000 0.452419 0.210006
-0.000000 0.000001 3.821047 0.000000 0.000000 -1.000000 0.428234 0.520186
0.403408 -2.028064 3.821047 0.000000 0.000000 -1.000000 0.544495 0.795131
-0.000000 0.000001 3.821047 0.000000 0.000000 -1.000000 0.428249 0.520248
-1.462153 1.462153 3.821047 0.000000 0.000000 -1.000000 0.210796 0.373272
-0.000000 0.000001 3.821047 0.000000 0.000000 -1.000000 0.428261 0.520172
0.403404 2.028065 3.821047 0.000000 0.000000 -1.000000 0.404082 0.210002
-0.000000 0.000001 3.821047 0.000000 0.000000 -1.000000 0.428239 0.520185
0.791312 -1.910394 3.821047 0.000000 0.000000 -1.000000 0.584686 0.761180
-0.000000 0.000001 3.821047 0.000000 0.000000 -1.000000 0.428249 0.520249
-1.719310 1.148806 3.821047 0.000000 0.000000 -1.000000 0.192303 0.429730
-0.000000 0.000001 3.821047 0.000000 0.000000 -1.000000 0.428265 0.520168
1.148807 -1.719309 3.821047 0.000000 0.000000 -1.000000 0.618864 0.717967
-0.000000 0.000001 3.821047 0.000000 0.000000 -1.000000 0.428247 0.520254
-1.910395 0.791311 3.821047 0.000000 0.000000 -1.000000 0.182868 0.489661
-0.000000 0.000001 3.821047 0.000000 0.000000 -1.000000 0.428252 0.520237
1.462154 -1.462152 3.821047 0.000000 0.000000 -1.000000 0.645715 0.667155
-0.000000 0.000001 3.821047 0.000000 0.000000 -1.000000 0.428242 0.520266
-2.028064 0.403407 3.821047 0.000000 0.000000 -1.000000 0.182865 0.550770
-0.000000 0.000001 3.821047 0.000000 0.000000 -1.000000 0.428260 0.520229
1.719310 -1.148805 3.821047 0.000000 0.000000 -1.000000 0.664216 0.610703
-0.000000 0.000001 3.821047 0.000000 0.000000 -1.000000 0.428268 0.520206
-2.067796 0.000000 3.821047 -0.000000 0.000000 -1.000000 0.192294 0.610705
-0.000000 0.000001 3.821047 -0.000000 0.000000 -1.000000 0.428261 0.520226
1.910395 -0.791310 3.821047 0.000000 0.000000 -1.000000 0.673648 0.550770
-0.000000 0.000001 3.821047 0.000000 0.000000 -1.000000 0.428262 0.520220
-2.028064 -0.403407 3.821047 0.000000 0.000000 -1.000000 0.210791 0.667164
-0.000000 0.000001 3.821047 0.000000 0.000000 -1.000000 0.428260 0.520229
2.028064 -0.403405 3.821047 0.000000 0.000000 -1.000000 0.673648 0.489663
-0.000000 0.000001 3.821047 0.000000 0.000000 -1.000000 0.428262 0.520222
-1.910395 -0.791311 3.821047 0.000000 0.000000 -1.000000 0.237647 0.717975
-0.000000 0.000001 3.821047 0.000000 0.000000 -1.000000 0.428259 0.520229
4 0 1 2 3
4 4 5 6 7
4 8 0 3 9
4 10 4 7 11
4 12 8 9 13
4 14 10 11 15
4 16 17 18 19
4 20 12 13 21
4 22 14 15 23
4 24 16 19 25
4 26 20 21 27
4 28 22 23 29
4 30 24 25 31
4 32 26 27 33
4 34 28 29 35
4 36 30 31 37
4 38 32 33 39
4 40 34 35 41
4 42 36 37 43
4 17 38 39 18
4 44 40 41 45
4 46 42 43 47
4 48 44 45 49
4 50 46 47 51
4 52 48 49 53
4 54 50 51 55
4 56 52 53 57
4 58 54 55 59
4 60 56 57 61
4 62 58 59 63
4 1 60 61 2
4 5 62 63 6
